<svg xmlns="http://www.w3.org/2000/svg" xmlns:svg="http://www.w3.org/2000/svg" xmlns:xlink="http://www.w3.org/1999/xlink" id="svg4322" width="273.067" height="273.067" version="1.1" viewBox="0 0 256 256"><defs id="defs4324"><clipPath id="clipPath5082-8-1-2-2-2-6" clipPathUnits="userSpaceOnUse"><path style="opacity:1;fill:#000;fill-opacity:1;stroke:none;stroke-width:110;stroke-linecap:butt;stroke-miterlimit:2.29999995;stroke-dasharray:none;stroke-opacity:1" id="path5084-7-7-7-9-2-5" d="m -115.05248,58.524637 0,784.000003 799.99998,0 0,-784.000003 -799.99998,0 z m 347.63477,219.714843 60.51953,117.59766 60.10156,-115.46094 96.51953,8.81055 c 0,0 21.55707,71.78012 45.45508,271.45898 l 6.22265,52 -104,12.44727 -6.22265,-52 c -5.23797,-43.76569 -10.1563,-79.68086 -14.72656,-110.53125 L 292.57252,623.70237 208.41627,460.17893 c -4.42262,30.91104 -9.08596,67.02841 -13.85156,111.13868 l -5.625,52.06836 -104.13672,-11.25 5.625,-52.06836 c 21.72727,-201.10698 46,-274.70704 46,-274.70704 l 96.1543,-7.12109 z"/></clipPath><radialGradient id="radialGradient6020-0-3-9-6-28-7" cx="1729.188" cy="521.348" r="12.194" fx="1729.188" fy="521.348" gradientTransform="matrix(10.496554,0,0,10.496608,-17867.352,-4878.3468)" gradientUnits="userSpaceOnUse" xlink:href="#linearGradient4390"/><linearGradient id="linearGradient4390"><stop id="stop4392" offset="0" style="stop-color:#000;stop-opacity:.58823532"/><stop id="stop4394" offset="1" style="stop-color:#1e1e1e;stop-opacity:1"/></linearGradient></defs><metadata id="metadata4327"/><g id="layer1" transform="translate(-155.16119,-466.04216)"><path id="path5838-9-5-5-5-3-5-6-3-9" d="m 282.64061,636.13169 c -374.60418,0 266.16743,-308.52989 32.60545,-15.55575 C 81.685128,913.55007 239.64043,220.08727 322.99776,585.41991 406.3551,950.75266 -37.074987,394.88658 300.43122,557.47498 637.93848,720.06327 -72.657257,720.39133 264.85,557.80251 602.35621,395.21412 159.25466,950.09602 242.61095,584.76327 c 83.35734,-365.33265 242.51344,329.90629 8.95146,36.93216 -233.561977,-292.97403 405.68133,14.43574 31.0782,14.43574 z M 164.65934,557.41598 c 14.03179,-43.1996 73.09381,-86.12521 118.5019,-86.12521 45.40705,0 104.47011,42.92561 118.5019,86.12521 14.0318,43.1995 -8.52845,112.65461 -45.26429,139.35345 -36.73584,26.69883 -109.74043,26.69883 -146.47627,0 -36.73584,-26.69884 -59.29503,-96.15395 -45.26324,-139.35345 z" style="opacity:1;fill:none;fill-opacity:.90196078;stroke:url(#radialGradient6020-0-3-9-6-28-7);stroke-width:10.49721622;stroke-linecap:square;stroke-linejoin:bevel;stroke-miterlimit:0;stroke-dasharray:none;stroke-dashoffset:0;stroke-opacity:1"/></g></svg>